<mxfile host="app.diagrams.net" modified="2020-12-07T19:03:54.915Z" agent="5.0 (Windows NT 10.0; Win64; x64) AppleWebKit/537.36 (KHTML, like Gecko) Chrome/87.0.4280.88 Safari/537.36" etag="ZaVKRKkEoG_RldC33xnN" version="13.11.0" type="github">
  <diagram id="ubtK0CXxR8o14yQeXOuR" name="Page-1">
    <mxGraphModel dx="1185" dy="927" grid="0" gridSize="10" guides="1" tooltips="1" connect="1" arrows="1" fold="1" page="1" pageScale="1" pageWidth="1100" pageHeight="850" math="0" shadow="0">
      <root>
        <mxCell id="0" />
        <mxCell id="1" parent="0" />
        <mxCell id="0di4GVNXK07yKZTkaitx-21" value="" style="endArrow=classic;html=1;" parent="1" edge="1">
          <mxGeometry width="50" height="50" relative="1" as="geometry">
            <mxPoint x="129" y="360" as="sourcePoint" />
            <mxPoint x="199" y="360.27" as="targetPoint" />
            <Array as="points">
              <mxPoint x="169" y="360.27" />
            </Array>
          </mxGeometry>
        </mxCell>
        <mxCell id="0di4GVNXK07yKZTkaitx-26" value="" style="endArrow=classic;html=1;" parent="1" edge="1">
          <mxGeometry width="50" height="50" relative="1" as="geometry">
            <mxPoint x="299" y="360" as="sourcePoint" />
            <mxPoint x="369" y="360.26999999999987" as="targetPoint" />
            <Array as="points">
              <mxPoint x="339" y="360.27" />
            </Array>
          </mxGeometry>
        </mxCell>
        <mxCell id="0di4GVNXK07yKZTkaitx-27" value="" style="endArrow=classic;html=1;" parent="1" edge="1">
          <mxGeometry width="50" height="50" relative="1" as="geometry">
            <mxPoint x="459" y="360" as="sourcePoint" />
            <mxPoint x="529" y="360.26999999999987" as="targetPoint" />
            <Array as="points">
              <mxPoint x="499" y="360.27" />
            </Array>
          </mxGeometry>
        </mxCell>
        <mxCell id="0di4GVNXK07yKZTkaitx-28" value="" style="endArrow=classic;html=1;" parent="1" edge="1">
          <mxGeometry width="50" height="50" relative="1" as="geometry">
            <mxPoint x="669" y="360" as="sourcePoint" />
            <mxPoint x="750" y="360" as="targetPoint" />
            <Array as="points">
              <mxPoint x="709" y="360.27" />
            </Array>
          </mxGeometry>
        </mxCell>
        <mxCell id="0di4GVNXK07yKZTkaitx-29" value="" style="endArrow=classic;html=1;" parent="1" edge="1">
          <mxGeometry width="50" height="50" relative="1" as="geometry">
            <mxPoint x="830" y="360" as="sourcePoint" />
            <mxPoint x="909" y="360.26999999999987" as="targetPoint" />
            <Array as="points">
              <mxPoint x="879" y="360.27" />
            </Array>
          </mxGeometry>
        </mxCell>
        <mxCell id="0di4GVNXK07yKZTkaitx-30" value="&lt;b&gt;commit/push&lt;/b&gt;" style="text;html=1;strokeColor=none;fillColor=none;align=center;verticalAlign=middle;whiteSpace=wrap;rounded=0;" parent="1" vertex="1">
          <mxGeometry x="116" y="334" width="90" height="20" as="geometry" />
        </mxCell>
        <mxCell id="0di4GVNXK07yKZTkaitx-31" value="&lt;b&gt;workflow&lt;/b&gt;" style="text;html=1;strokeColor=none;fillColor=none;align=center;verticalAlign=middle;whiteSpace=wrap;rounded=0;" parent="1" vertex="1">
          <mxGeometry x="301" y="334" width="59" height="20" as="geometry" />
        </mxCell>
        <mxCell id="0di4GVNXK07yKZTkaitx-32" value="device-1" style="rounded=1;whiteSpace=wrap;html=1;fillColor=none;" parent="1" vertex="1">
          <mxGeometry x="919" y="320" width="100" height="20" as="geometry" />
        </mxCell>
        <mxCell id="0di4GVNXK07yKZTkaitx-33" value="device-n" style="rounded=1;whiteSpace=wrap;html=1;" parent="1" vertex="1">
          <mxGeometry x="919" y="380" width="100" height="20" as="geometry" />
        </mxCell>
        <mxCell id="0di4GVNXK07yKZTkaitx-34" value="&lt;b&gt;Networking Devices&lt;br&gt;&lt;/b&gt;" style="text;html=1;strokeColor=none;fillColor=none;align=center;verticalAlign=middle;whiteSpace=wrap;rounded=0;" parent="1" vertex="1">
          <mxGeometry x="907.75" y="402" width="122.5" height="20" as="geometry" />
        </mxCell>
        <mxCell id="0di4GVNXK07yKZTkaitx-35" value="" style="endArrow=none;dashed=1;html=1;dashPattern=1 3;strokeWidth=2;" parent="1" edge="1">
          <mxGeometry width="50" height="50" relative="1" as="geometry">
            <mxPoint x="968.83" y="374.61" as="sourcePoint" />
            <mxPoint x="968.83" y="344.61" as="targetPoint" />
          </mxGeometry>
        </mxCell>
        <mxCell id="0di4GVNXK07yKZTkaitx-36" value="&lt;b&gt;deploy&lt;/b&gt;" style="text;html=1;strokeColor=none;fillColor=none;align=center;verticalAlign=middle;whiteSpace=wrap;rounded=0;" parent="1" vertex="1">
          <mxGeometry x="850" y="334" width="40" height="20" as="geometry" />
        </mxCell>
        <mxCell id="0di4GVNXK07yKZTkaitx-40" value="&lt;b&gt;Python code&lt;/b&gt;" style="text;html=1;strokeColor=none;fillColor=none;align=center;verticalAlign=middle;whiteSpace=wrap;rounded=0;" parent="1" vertex="1">
          <mxGeometry x="748" y="402" width="80" height="20" as="geometry" />
        </mxCell>
        <mxCell id="0di4GVNXK07yKZTkaitx-41" value="&lt;b&gt;start job&lt;/b&gt;" style="text;html=1;strokeColor=none;fillColor=none;align=center;verticalAlign=middle;whiteSpace=wrap;rounded=0;" parent="1" vertex="1">
          <mxGeometry x="459" y="334" width="62" height="20" as="geometry" />
        </mxCell>
        <mxCell id="0di4GVNXK07yKZTkaitx-42" value="&lt;b&gt;run script&lt;/b&gt;" style="text;html=1;strokeColor=none;fillColor=none;align=center;verticalAlign=middle;whiteSpace=wrap;rounded=0;" parent="1" vertex="1">
          <mxGeometry x="671" y="334" width="67" height="20" as="geometry" />
        </mxCell>
        <mxCell id="0di4GVNXK07yKZTkaitx-11" value="GitHub Actions&lt;br&gt;self-hosted runner" style="rounded=1;whiteSpace=wrap;html=1;fillColor=none;" parent="1" vertex="1">
          <mxGeometry x="540" y="330" width="120" height="60" as="geometry" />
        </mxCell>
        <mxCell id="0di4GVNXK07yKZTkaitx-19" value="&lt;b&gt;Docker container&lt;br&gt;&lt;/b&gt;" style="text;html=1;strokeColor=none;fillColor=none;align=center;verticalAlign=middle;whiteSpace=wrap;rounded=0;" parent="1" vertex="1">
          <mxGeometry x="547.5" y="402" width="105" height="20" as="geometry" />
        </mxCell>
        <mxCell id="0di4GVNXK07yKZTkaitx-5" value="" style="shape=image;html=1;verticalAlign=top;verticalLabelPosition=bottom;labelBackgroundColor=#ffffff;imageAspect=0;aspect=fixed;image=https://cdn2.iconfinder.com/data/icons/social-icons-circular-color/512/github-128.png" parent="1" vertex="1">
          <mxGeometry x="374" y="320" width="80" height="80" as="geometry" />
        </mxCell>
        <mxCell id="0di4GVNXK07yKZTkaitx-18" value="&lt;b&gt;GitHub Actions&lt;br&gt;&lt;/b&gt;" style="text;html=1;strokeColor=none;fillColor=none;align=center;verticalAlign=middle;whiteSpace=wrap;rounded=0;" parent="1" vertex="1">
          <mxGeometry x="369" y="402" width="90" height="20" as="geometry" />
        </mxCell>
        <mxCell id="0di4GVNXK07yKZTkaitx-10" value="" style="shape=image;html=1;verticalAlign=top;verticalLabelPosition=bottom;labelBackgroundColor=#ffffff;imageAspect=0;aspect=fixed;image=https://cdn3.iconfinder.com/data/icons/social-network-and-media-1/128/Github.png" parent="1" vertex="1">
          <mxGeometry x="209" y="320" width="80" height="80" as="geometry" />
        </mxCell>
        <mxCell id="0di4GVNXK07yKZTkaitx-17" value="&lt;b&gt;GitHub repo - main branch&lt;/b&gt;" style="text;html=1;strokeColor=none;fillColor=none;align=center;verticalAlign=middle;whiteSpace=wrap;rounded=0;" parent="1" vertex="1">
          <mxGeometry x="208.5" y="409" width="81" height="20" as="geometry" />
        </mxCell>
        <mxCell id="0di4GVNXK07yKZTkaitx-8" value="" style="pointerEvents=1;shadow=0;dashed=0;html=1;strokeColor=none;fillColor=#505050;labelPosition=center;verticalLabelPosition=bottom;verticalAlign=top;outlineConnect=0;align=center;shape=mxgraph.office.users.user;aspect=fixed;" parent="1" vertex="1">
          <mxGeometry x="59" y="328" width="60" height="65.22" as="geometry" />
        </mxCell>
        <mxCell id="0di4GVNXK07yKZTkaitx-16" value="&lt;b&gt;Operator&lt;/b&gt;" style="text;html=1;strokeColor=none;fillColor=none;align=center;verticalAlign=middle;whiteSpace=wrap;rounded=0;" parent="1" vertex="1">
          <mxGeometry x="69" y="402" width="40" height="20" as="geometry" />
        </mxCell>
        <mxCell id="BkZlHpfip2ykGgVXvWdr-1" value="" style="shape=image;html=1;verticalAlign=top;verticalLabelPosition=bottom;labelBackgroundColor=#ffffff;imageAspect=0;aspect=fixed;image=https://cdn3.iconfinder.com/data/icons/social-network-and-media-1/128/Github.png" parent="1" vertex="1">
          <mxGeometry x="209" y="160" width="80" height="80" as="geometry" />
        </mxCell>
        <mxCell id="BkZlHpfip2ykGgVXvWdr-2" value="" style="endArrow=classic;html=1;" parent="1" edge="1">
          <mxGeometry width="50" height="50" relative="1" as="geometry">
            <mxPoint x="250" y="240" as="sourcePoint" />
            <mxPoint x="250" y="320" as="targetPoint" />
            <Array as="points">
              <mxPoint x="250" y="250" />
            </Array>
          </mxGeometry>
        </mxCell>
        <mxCell id="BkZlHpfip2ykGgVXvWdr-3" value="&lt;b&gt;GitHub repo - new branch&lt;/b&gt;" style="text;html=1;strokeColor=none;fillColor=none;align=center;verticalAlign=middle;whiteSpace=wrap;rounded=0;" parent="1" vertex="1">
          <mxGeometry x="208.5" y="130" width="81" height="20" as="geometry" />
        </mxCell>
        <mxCell id="BkZlHpfip2ykGgVXvWdr-4" value="&lt;ul&gt;&lt;li&gt;&lt;b&gt;pull request&lt;/b&gt;&lt;/li&gt;&lt;li&gt;&lt;b&gt;peer review&lt;/b&gt;&lt;/li&gt;&lt;li&gt;&lt;b&gt;testing&lt;/b&gt;&lt;/li&gt;&lt;li&gt;&lt;b&gt;approval&lt;/b&gt;&lt;/li&gt;&lt;li&gt;&lt;b&gt;merge&lt;/b&gt;&lt;/li&gt;&lt;/ul&gt;" style="text;html=1;strokeColor=none;fillColor=none;align=left;verticalAlign=middle;whiteSpace=wrap;rounded=0;" parent="1" vertex="1">
          <mxGeometry x="231" y="240" width="140" height="70" as="geometry" />
        </mxCell>
        <mxCell id="-_KzPOu2snX8i_z35t2C-1" value="&lt;span&gt;Source of Truth&lt;/span&gt;" style="text;html=1;strokeColor=#6c8ebf;fillColor=#dae8fc;align=center;verticalAlign=middle;whiteSpace=wrap;rounded=1;gradientColor=#ffffff;glass=0;shadow=1;sketch=0;fontStyle=2;labelBackgroundColor=none;labelBorderColor=none;" parent="1" vertex="1">
          <mxGeometry x="197" y="440" width="104" height="20" as="geometry" />
        </mxCell>
        <mxCell id="-_KzPOu2snX8i_z35t2C-2" value="&lt;span&gt;CI/CD&lt;/span&gt;" style="text;html=1;strokeColor=#6c8ebf;fillColor=#dae8fc;align=center;verticalAlign=middle;whiteSpace=wrap;rounded=1;gradientColor=#ffffff;glass=0;shadow=1;sketch=0;fontStyle=2;labelBackgroundColor=none;labelBorderColor=none;" parent="1" vertex="1">
          <mxGeometry x="362" y="440" width="104" height="20" as="geometry" />
        </mxCell>
        <mxCell id="-_KzPOu2snX8i_z35t2C-3" value="&lt;span&gt;Deployment Tool&lt;/span&gt;" style="text;html=1;strokeColor=#6c8ebf;fillColor=#dae8fc;align=center;verticalAlign=middle;whiteSpace=wrap;rounded=1;gradientColor=#ffffff;glass=0;shadow=1;sketch=0;fontStyle=2;labelBackgroundColor=none;labelBorderColor=none;" parent="1" vertex="1">
          <mxGeometry x="736" y="440" width="104" height="20" as="geometry" />
        </mxCell>
        <mxCell id="-_KzPOu2snX8i_z35t2C-4" value="&lt;span&gt;Deployment Agent&lt;/span&gt;" style="text;html=1;strokeColor=#6c8ebf;fillColor=#dae8fc;align=center;verticalAlign=middle;whiteSpace=wrap;rounded=1;gradientColor=#ffffff;glass=0;shadow=1;sketch=0;fontStyle=2;labelBackgroundColor=none;labelBorderColor=none;" parent="1" vertex="1">
          <mxGeometry x="548" y="440" width="104" height="20" as="geometry" />
        </mxCell>
        <mxCell id="-_KzPOu2snX8i_z35t2C-7" value="" style="shape=image;html=1;verticalAlign=top;verticalLabelPosition=bottom;labelBackgroundColor=#ffffff;imageAspect=0;aspect=fixed;image=https://cdn4.iconfinder.com/data/icons/essential-3/32/356-Document_Code-128.png;rounded=1;shadow=1;glass=0;sketch=0;gradientColor=#ffffff;" parent="1" vertex="1">
          <mxGeometry x="750.5" y="323" width="75" height="75" as="geometry" />
        </mxCell>
        <mxCell id="NPknkLC1WkhTkJsWbaCz-3" value="standard change" style="text;whiteSpace=wrap;fontStyle=2;fontSize=9;html=1;" parent="1" vertex="1">
          <mxGeometry x="127.71000000000001" y="362" width="71.29" height="25.29" as="geometry" />
        </mxCell>
        <mxCell id="NPknkLC1WkhTkJsWbaCz-4" value="normal change" style="text;fontStyle=2;fontSize=9;rotation=0;whiteSpace=wrap;" parent="1" vertex="1">
          <mxGeometry x="108.99999999999997" y="178" width="66.29" height="25.29" as="geometry" />
        </mxCell>
        <mxCell id="qhyrtXmqJ49Yqb2OUOIZ-2" value="&lt;b&gt;Unimus&lt;/b&gt;" style="outlineConnect=0;fontColor=#232F3E;gradientColor=none;strokeColor=#232F3E;dashed=0;verticalLabelPosition=bottom;verticalAlign=top;align=center;html=1;fontSize=12;fontStyle=0;aspect=fixed;shape=mxgraph.aws4.resourceIcon;resIcon=mxgraph.aws4.automation;fillColor=none;" parent="1" vertex="1">
          <mxGeometry x="209" y="520" width="80" height="80" as="geometry" />
        </mxCell>
        <mxCell id="qhyrtXmqJ49Yqb2OUOIZ-4" value="" style="endArrow=classic;html=1;" parent="1" edge="1">
          <mxGeometry width="50" height="50" relative="1" as="geometry">
            <mxPoint x="90" y="320" as="sourcePoint" />
            <mxPoint x="200" y="199.92999999999998" as="targetPoint" />
            <Array as="points">
              <mxPoint x="90" y="200" />
              <mxPoint x="170" y="199.92999999999998" />
            </Array>
          </mxGeometry>
        </mxCell>
        <mxCell id="qhyrtXmqJ49Yqb2OUOIZ-5" value="" style="endArrow=classic;html=1;" parent="1" edge="1">
          <mxGeometry width="50" height="50" relative="1" as="geometry">
            <mxPoint x="200" y="560" as="sourcePoint" />
            <mxPoint x="90" y="440" as="targetPoint" />
            <Array as="points">
              <mxPoint x="90" y="560" />
            </Array>
          </mxGeometry>
        </mxCell>
        <mxCell id="qhyrtXmqJ49Yqb2OUOIZ-7" value="&lt;ul&gt;&lt;li&gt;&lt;b&gt;commit&lt;/b&gt;&lt;/li&gt;&lt;li&gt;&lt;b&gt;push&lt;/b&gt;&lt;/li&gt;&lt;/ul&gt;" style="text;html=1;strokeColor=none;fillColor=none;align=left;verticalAlign=middle;whiteSpace=wrap;rounded=0;" parent="1" vertex="1">
          <mxGeometry x="70" y="240" width="110" height="30" as="geometry" />
        </mxCell>
        <mxCell id="qhyrtXmqJ49Yqb2OUOIZ-8" value="&lt;ul&gt;&lt;li&gt;&lt;b&gt;change alerts&lt;/b&gt;&lt;/li&gt;&lt;li&gt;&lt;b&gt;job reports&lt;/b&gt;&lt;/li&gt;&lt;/ul&gt;" style="text;html=1;strokeColor=none;fillColor=none;align=left;verticalAlign=middle;whiteSpace=wrap;rounded=0;" parent="1" vertex="1">
          <mxGeometry x="70" y="480" width="130" height="30" as="geometry" />
        </mxCell>
        <mxCell id="qhyrtXmqJ49Yqb2OUOIZ-9" value="" style="endArrow=classic;html=1;startArrow=classic;startFill=1;" parent="1" edge="1">
          <mxGeometry width="50" height="50" relative="1" as="geometry">
            <mxPoint x="301" y="559.66" as="sourcePoint" />
            <mxPoint x="970" y="440" as="targetPoint" />
            <Array as="points">
              <mxPoint x="341" y="559.93" />
              <mxPoint x="970" y="560" />
            </Array>
          </mxGeometry>
        </mxCell>
        <mxCell id="qhyrtXmqJ49Yqb2OUOIZ-11" value="&lt;span&gt;Monitoring Tool&lt;/span&gt;" style="text;html=1;strokeColor=#6c8ebf;fillColor=#dae8fc;align=center;verticalAlign=middle;whiteSpace=wrap;rounded=1;gradientColor=#ffffff;glass=0;shadow=1;sketch=0;fontStyle=2;labelBackgroundColor=none;labelBorderColor=none;" parent="1" vertex="1">
          <mxGeometry x="197" y="630" width="104" height="20" as="geometry" />
        </mxCell>
        <mxCell id="qhyrtXmqJ49Yqb2OUOIZ-12" value="&lt;ul&gt;&lt;li&gt;&lt;b&gt;config backup&lt;/b&gt;&lt;/li&gt;&lt;li&gt;&lt;b&gt;config diff&lt;/b&gt;&lt;/li&gt;&lt;/ul&gt;" style="text;html=1;strokeColor=none;fillColor=none;align=left;verticalAlign=middle;whiteSpace=wrap;rounded=0;" parent="1" vertex="1">
          <mxGeometry x="950" y="480" width="130" height="30" as="geometry" />
        </mxCell>
      </root>
    </mxGraphModel>
  </diagram>
</mxfile>
